<svg width="1600" height="1100" viewBox="0 0 1600 1100" fill="none" xmlns="http://www.w3.org/2000/svg">
  <defs>
    <linearGradient id="bg" x1="0" y1="0" x2="1" y2="1">
      <stop offset="0%" stop-color="#ffffff" />
      <stop offset="60%" stop-color="#e9edf5" />
      <stop offset="100%" stop-color="#d7e0f2" />
    </linearGradient>
    <linearGradient id="accent" x1="0" y1="0" x2="1" y2="0">
      <stop offset="0%" stop-color="#001B48" stop-opacity="0.85" />
      <stop offset="100%" stop-color="#001B48" stop-opacity="0.15" />
    </linearGradient>
  </defs>
  <rect width="1600" height="1100" fill="url(#bg)" />
  <rect x="960" y="160" width="520" height="720" rx="28" fill="#ffffff" stroke="#c6c9cf" stroke-width="2" />
  <rect x="1020" y="240" width="400" height="56" rx="12" fill="#f4f5f7" />
  <rect x="1020" y="330" width="360" height="20" rx="10" fill="#e2e4e8" />
  <rect x="1020" y="370" width="320" height="20" rx="10" fill="#e2e4e8" />
  <rect x="1020" y="410" width="240" height="20" rx="10" fill="#e2e4e8" />
  <rect x="1020" y="500" width="260" height="160" rx="20" fill="#f4f5f7" />
  <rect x="1060" y="690" width="240" height="50" rx="12" fill="url(#accent)" />
  <circle cx="1180" cy="770" r="60" fill="#f4f5f7" stroke="#c6c9cf" stroke-width="2" />
  <rect x="130" y="220" width="620" height="16" rx="8" fill="#d5dae3" />
  <rect x="130" y="260" width="520" height="16" rx="8" fill="#d5dae3" />
  <rect x="130" y="300" width="420" height="16" rx="8" fill="#d5dae3" />
  <rect x="130" y="420" width="480" height="12" rx="6" fill="#e3e6ee" />
  <rect x="130" y="450" width="520" height="12" rx="6" fill="#e3e6ee" />
  <rect x="130" y="480" width="440" height="12" rx="6" fill="#e3e6ee" />
  <rect x="130" y="630" width="220" height="52" rx="26" fill="#001B48" />
  <rect x="370" y="630" width="200" height="52" rx="26" fill="#ffffff" stroke="#001B48" stroke-width="2" />
</svg>
